<?xml version="1.0" encoding="UTF-8"?>
<svg id="Layer_1" data-name="Layer 1" xmlns="http://www.w3.org/2000/svg" viewBox="0 0 300 300">
  <defs>
    <style>
      .cls-1 {
        fill: #382d72;
        fill-rule: evenodd;
      }

      .cls-2 {
        fill: #a080e2;
      }

      .cls-3 {
        fill: #5c4f9d;
      }
    </style>
  </defs>
  <g>
    <g>
      <path class="cls-1" d="M229.34,185.25c1.99-4.13,3.66-8.47,4.98-12.95,2.26-7.68,3.41-15.71,3.41-23.85s-1.15-16.18-3.41-23.88c-1.28-4.41-2.94-8.74-4.94-12.92h6.71c1.51,3.39,2.82,6.94,3.91,10.57.87,2.86,1.6,5.82,2.17,8.81,1.11,5.65,1.67,11.5,1.67,17.42s-.56,11.78-1.68,17.5c-.59,3.02-1.31,5.95-2.16,8.71-1.08,3.64-2.4,7.19-3.91,10.59h-6.74Z"/>
      <path class="cls-1" d="M63.92,185.25c-1.53-3.45-2.84-7.01-3.91-10.58-.85-2.76-1.57-5.69-2.16-8.71-1.11-5.72-1.68-11.61-1.68-17.5s.56-11.77,1.66-17.41c.58-3,1.31-5.96,2.17-8.81,1.09-3.64,2.4-7.19,3.91-10.58h6.71c-1.97,4.1-3.63,8.41-4.94,12.86-2.27,7.72-3.42,15.77-3.42,23.94s1.15,16.21,3.42,23.92c1.28,4.41,2.94,8.73,4.94,12.88h-6.7Z"/>
      <g>
        <path class="cls-1" d="M239.79,166.56c1.19-5.91,1.79-11.96,1.79-18.07s-.6-12.17-1.79-18.07l50.71,18.07-50.71,18.07Z"/>
        <path class="cls-1" d="M60.21,130.42c-1.19,5.91-1.79,11.96-1.79,18.07s.6,12.16,1.79,18.07l-50.71-18.07,50.71-18.07Z"/>
      </g>
    </g>
    <g>
      <g>
        <path class="cls-1" d="M237.54,80.43c-2.79-3.58-5.83-7.05-9.13-10.34-3.3-3.3-6.76-6.35-10.34-9.13-11.61-9.05-24.63-15.48-38.2-19.24v7.9c15.8,4.76,30.68,13.37,43.16,25.85,13.72,13.72,22.79,30.35,27.16,47.9l8.46,3.01c-3.3-16.37-10.34-32.15-21.11-45.95ZM250.18,173.6c-4.37,17.55-13.44,34.19-27.16,47.92-.15.15-.31.3-.46.45-5.23,5.19-10.9,9.69-16.87,13.52-8.03,5.15-16.63,9.09-25.51,11.79v7.92c13.46-3.78,26.37-10.18,37.89-19.16h.01c3.58-2.81,7.03-5.83,10.33-9.13,3.3-3.3,6.34-6.76,9.13-10.34,10.75-13.81,17.8-29.59,21.11-45.97l-8.46,3.01ZM94.3,235.48c-5.57-3.57-10.86-7.73-15.81-12.48-.5-.49-1.01-.98-1.51-1.49-13.74-13.72-22.79-30.36-27.16-47.92l-8.48-3.01c3.31,16.38,10.36,32.16,21.12,45.97,2.79,3.58,5.83,7.05,9.13,10.34,3.3,3.3,6.75,6.32,10.33,9.12h.01c11.52,8.99,24.42,15.39,37.89,19.18v-7.92c-8.9-2.7-17.49-6.62-25.53-11.79ZM81.94,60.96c-3.58,2.78-7.05,5.83-10.34,9.13-3.3,3.3-6.34,6.76-9.13,10.34-10.77,13.81-17.81,29.59-21.12,45.95l8.48-3.01c4.37-17.55,13.42-34.18,27.16-47.9,12.48-12.5,27.37-21.11,43.18-25.87v-7.9c-13.59,3.78-26.6,10.19-38.21,19.26Z"/>
        <g>
          <path class="cls-1" d="M52.62,245.86l6.55-19.5,5.5-16.39c6.79,9,14.84,17.05,23.84,23.84l-16.39,5.5-19.5,6.55h0Z"/>
          <path class="cls-1" d="M247.37,51.12l-6.55,19.5-5.5,16.39c-6.79-9-14.84-17.05-23.84-23.83l16.39-5.5,19.5-6.55h0Z"/>
          <path class="cls-1" d="M52.62,51.12l19.5,6.55,16.39,5.5c-9,6.79-17.05,14.84-23.84,23.84l-5.5-16.39-6.55-19.5h0Z"/>
          <path class="cls-1" d="M247.37,245.86l-19.5-6.55-16.39-5.5c9-6.79,17.05-14.84,23.83-23.83l5.5,16.39,6.55,19.5h0Z"/>
        </g>
      </g>
      <path class="cls-1" d="M131.93,238.28c5.91,1.19,11.96,1.79,18.07,1.79s12.16-.6,18.07-1.79l-18.07,50.71-18.07-50.71Z"/>
    </g>
  </g>
  <g>
    <path class="cls-3" d="M224.96,144.14l-6.42,9.66h0s-.2.3-.2.3l-3.09-2.07-11.52-7.67v83.16c-4.67,3-9.61,5.59-14.77,7.77-2.98,1.27-6.02,2.37-9.1,3.34v-65.62c0-16.46-13.38-29.86-29.86-29.86s-29.83,13.4-29.83,29.86v65.62c-3.07-.97-6.11-2.07-9.1-3.34-5.17-2.19-10.11-4.78-14.79-7.77v-83.16l-11.52,7.7-2.9,1.94-.16.11-6.64-9.96,7.15-4.77.37-.25,67.42-44.95,67.69,45.11.1.07,7.18,4.78Z"/>
    <path class="cls-3" d="M167.91,169.91v56.68c-5.87.88-11.85,1.32-17.91,1.32s-12.04-.44-17.91-1.32v-56.68c0-8.17,8.03-14.81,17.91-14.81s17.91,6.64,17.91,14.81Z"/>
  </g>
  <path class="cls-2" d="M179.06,60.64l-3.28-1.64-6.81-3.39-6.72-3.37-6.27-3.13v-14.23h11.94v-11.94h-11.94v-11.94h-11.94v11.94h-11.94v11.94h11.94v14.23l-4.2,2.1-2.07,1.04-5.4,2.7-3.56,1.79-4.57,2.28-3.26,1.62-.83.42v38.69l29.85-19.91,29.86,19.91v-38.69l-.8-.41Z"/>
</svg>