<?xml version="1.0" encoding="UTF-8"?>
<svg id="Layer_1" data-name="Layer 1" xmlns="http://www.w3.org/2000/svg" viewBox="0 0 1080 1080">
  <defs>
    <style>
      .cls-1, .cls-2 {
        fill: #382d72;
      }

      .cls-2 {
        fill-rule: evenodd;
      }

      .cls-3 {
        fill: #a080e2;
      }

      .cls-4 {
        fill: #5c4f9d;
      }
    </style>
  </defs>
  <g>
    <g>
      <g>
        <path class="cls-2" d="M654.93,413.89c3.23-6.51,5.93-13.36,8.06-20.42,3.66-12.12,5.52-24.78,5.52-37.62s-1.86-25.53-5.52-37.67c-2.07-6.95-4.76-13.79-8-20.37h10.86c2.44,5.35,4.57,10.95,6.33,16.67,1.41,4.51,2.59,9.18,3.52,13.9,1.79,8.91,2.7,18.15,2.7,27.47s-.91,18.58-2.72,27.6c-.95,4.77-2.13,9.39-3.5,13.73-1.75,5.74-3.88,11.34-6.33,16.71h-10.91Z"/>
        <path class="cls-2" d="M387.13,413.89c-2.47-5.44-4.6-11.06-6.33-16.7-1.37-4.36-2.55-8.98-3.5-13.75-1.8-9.02-2.72-18.31-2.72-27.6s.91-18.56,2.7-27.47c.94-4.73,2.12-9.4,3.52-13.89,1.76-5.74,3.89-11.34,6.33-16.68h10.85c-3.19,6.46-5.87,13.27-8,20.29-3.68,12.17-5.54,24.87-5.54,37.76s1.86,25.57,5.54,37.73c2.08,6.95,4.76,13.77,8,20.31h-10.85Z"/>
        <g>
          <path class="cls-2" d="M671.84,384.41c1.92-9.33,2.89-18.87,2.89-28.5s-.97-19.19-2.89-28.5l82.1,28.5-82.1,28.5Z"/>
          <path class="cls-2" d="M381.13,327.4c-1.92,9.33-2.89,18.87-2.89,28.5s.97,19.19,2.89,28.5l-82.1-28.5,82.1-28.5Z"/>
        </g>
      </g>
      <g>
        <g>
          <path class="cls-2" d="M668.19,248.55c-4.52-5.65-9.44-11.11-14.78-16.32-5.34-5.2-10.94-10.02-16.75-14.4-18.8-14.27-39.87-24.42-61.84-30.35v12.47c25.57,7.5,49.66,21.09,69.87,40.78,22.22,21.65,36.89,47.87,43.97,75.56l13.7,4.75c-5.34-25.82-16.75-50.71-34.17-72.49ZM688.67,395.5c-7.08,27.69-21.75,53.94-43.97,75.59-.24.24-.51.47-.75.71-8.47,8.19-17.65,15.28-27.31,21.33-12.99,8.13-26.92,14.34-41.3,18.6v12.49c21.8-5.95,42.69-16.06,61.33-30.23l.02-.02c5.8-4.41,11.38-9.18,16.72-14.38,5.34-5.2,10.26-10.66,14.78-16.32,17.41-21.78,28.81-46.67,34.17-72.51l-13.7,4.75ZM436.32,493.12c-9.02-5.63-17.58-12.19-25.59-19.69-.82-.77-1.63-1.55-2.45-2.34-22.24-21.65-36.89-47.9-43.97-75.59l-13.72-4.75c5.36,25.84,16.77,50.73,34.2,72.51,4.52,5.65,9.44,11.11,14.78,16.32,5.34,5.2,10.92,9.98,16.72,14.38l.02.02c18.64,14.17,39.54,24.25,61.33,30.23v-12.49c-14.41-4.26-28.31-10.45-41.32-18.6ZM416.31,217.83c-5.8,4.39-11.41,9.2-16.75,14.4-5.34,5.2-10.26,10.66-14.78,16.32-17.43,21.78-28.84,46.67-34.2,72.49l13.72-4.75c7.08-27.69,21.73-53.92,43.97-75.56,20.21-19.71,44.3-33.3,69.89-40.8v-12.47c-22,5.95-43.07,16.08-61.86,30.38Z"/>
          <g>
            <path class="cls-2" d="M368.85,509.5l10.6-30.75,8.91-25.85c10.99,14.19,24.02,26.89,38.59,37.6l-26.53,8.68-31.56,10.33h0Z"/>
            <path class="cls-2" d="M684.12,202.31l-10.6,30.76-8.91,25.85c-10.99-14.19-24.02-26.89-38.59-37.6l26.53-8.68,31.56-10.33h0Z"/>
            <path class="cls-2" d="M368.85,202.31l31.56,10.33,26.53,8.68c-14.56,10.71-27.59,23.41-38.59,37.6l-8.91-25.85-10.6-30.75h0Z"/>
            <path class="cls-2" d="M684.12,509.5l-31.56-10.33-26.53-8.68c14.56-10.71,27.6-23.41,38.59-37.6l8.91,25.85,10.6,30.76h0Z"/>
          </g>
        </g>
        <path class="cls-2" d="M497.24,497.54c9.57,1.87,19.36,2.82,29.25,2.82s19.69-.95,29.25-2.82l-29.25,79.99-29.25-79.99Z"/>
      </g>
    </g>
    <g>
      <path class="cls-4" d="M647.83,349.05l-10.39,15.24v.02l-.33.45-5.01-3.27-18.64-12.1v131.18c-7.57,4.73-15.55,8.81-23.92,12.25-4.83,2-9.75,3.74-14.74,5.27v-103.51c0-25.97-21.67-47.1-48.34-47.1s-48.29,21.13-48.29,47.1v103.51c-4.96-1.53-9.88-3.27-14.74-5.27-8.36-3.46-16.37-7.55-23.94-12.25v-131.18l-18.64,12.15-4.7,3.05-.26.17-10.74-15.71,11.58-7.52.6-.39,109.14-70.9,109.58,71.16.15.11,11.63,7.55Z"/>
      <path class="cls-4" d="M555.49,389.69v89.4c-9.5,1.38-19.19,2.08-29,2.08s-19.49-.7-29-2.08v-89.4c0-12.88,13-23.36,29-23.36s29,10.48,29,23.36Z"/>
    </g>
    <path class="cls-3" d="M573.52,217.33l-5.32-2.58-11.03-5.35-10.88-5.31-10.15-4.94v-22.44h19.33v-18.83h-19.33v-18.83h-19.33v18.83h-19.33v18.83h19.33v22.44l-6.8,3.31-3.35,1.63-8.74,4.26-5.76,2.82-7.39,3.59-5.27,2.56-1.35.67v61.03l48.32-31.41,48.34,31.41v-61.03l-1.3-.64Z"/>
  </g>
  <g>
    <g>
      <path class="cls-1" d="M294.83,644.3c0,4.83-.78,6.1-4.43,6.1-3.39,0-4.69-1.27-5.73-5.33-6.52-25.91-26.07-43.18-47.44-43.18-23.72,0-39.62,23.88-39.62,59.44-.26,60.2,22.68,100.33,57.61,100.33,14.6,0,27.37-5.08,35.97-14.73,1.3-1.52,3.39-1.78,4.95-.25,1.56,1.52,2.09,3.56.78,5.33-10.95,17.27-31.54,28.7-51.61,28.7-46.92,0-78.21-37.85-78.21-94.49s30.24-91.95,75.86-91.95c18.77,0,37.54,7.87,48.75,16.26,2.34,1.78,3.13,2.79,3.13,6.1v27.69Z"/>
      <path class="cls-1" d="M317.25,609.25c0-11.68-5.73-16.76-14.6-16.76-4.17,0-4.17-7.62,0-7.62,17.46,0,25.8-2.54,36.23-4.57,2.6-.51,4.43,1.02,4.43,4.06v81.03c9.12-11.18,22.68-18.03,37.27-18.03,21.64,0,33.11,14.73,33.37,42.67v56.64c0,12.45,2.61,22.1,14.34,22.1,4.17,0,4.17,7.62,0,7.62h-55c-4.17,0-4.17-7.62,0-7.62,11.73,0,14.6-9.65,14.6-22.1v-57.15c0-21.59-6.52-34.04-16.42-34.04-8.86,0-19.81,9.65-28.15,24.13v67.06c0,12.45,2.6,22.1,14.34,22.1,4.17,0,4.17,7.62,0,7.62h-55c-4.17,0-4.17-7.62,0-7.62,11.73,0,14.6-9.65,14.6-22.1v-137.41Z"/>
      <path class="cls-1" d="M451.24,677.32c0-10.92-7.56-18.03-14.6-18.03-4.17,0-4.17-7.62,0-7.62,17.21,0,25.81-2.54,36.24-4.57,2.6-.51,4.43,1.02,4.43,4.06v87.38c-.26,20.07,7.3,33.27,18.77,33.27,9.64,0,21.37-9.4,29.19-24.89v-68.07c0-14.73-8.08-19.56-14.6-19.56-4.17,0-4.17-7.62,0-7.62,17.21,0,20.33-1.52,36.23-4.57,3.65-.76,4.43,2.29,4.43,3.81v97.03c0,10.16,4.69,15.49,11.73,13.97,4.43-.76,4.95,6.1,1.83,8.13-7.56,5.33-16.16,8.89-21.64,8.89-8.08,0-14.34-7.37-16.94-19.3-10.69,12.95-25.55,21.08-40.93,21.08-19.81,0-34.15-15.24-34.15-38.1v-65.28Z"/>
      <path class="cls-1" d="M595.14,678.85c0-11.68-5.73-19.56-14.6-19.56-4.17,0-4.17-7.62,0-7.62,17.47,0,25.81-1.78,36.24-4.06,2.6-.51,4.43,1.02,4.43,4.06v9.14c7.3-8.13,16.94-13.46,28.67-13.46,12.77,0,21.38,8.64,21.38,18.29-.26,7.37-5.21,12.45-11.47,12.45-13.29,0-12.51-23.88-22.42-23.88-5.47,0-11.47,6.86-16.16,17.53v74.93c0,12.45,2.61,22.1,14.34,22.1,4.17,0,4.17,7.62,0,7.62h-55c-4.17,0-4.17-7.62,0-7.62,11.73,0,14.6-9.65,14.6-22.1v-67.82Z"/>
      <path class="cls-1" d="M767.97,683.42c0,1.78-1.56,3.05-3.65,3.05-3.13,0-4.17-1.27-5.99-6.6-5.21-15.49-17.73-25.65-31.02-25.65-15.38,0-25.54,19.05-25.54,47.5,0,37.34,16.68,64.52,38.06,64.52,9.13,0,18.77-4.57,25.55-11.43.78-.76,1.56-1.02,2.08-1.02,2.61,0,4.69,3.05,2.87,5.84-8.34,12.45-25.02,21.08-41.97,21.08-31.54,0-52.65-26.92-52.65-67.06s21.37-66.29,53.44-66.29c12.25,0,26.33,5.33,35.71,13.46,2.6,2.29,2.87,3.05,2.87,8.89l.26,13.72Z"/>
      <path class="cls-1" d="M795.34,609.25c0-11.68-5.73-16.76-14.6-16.76-4.17,0-4.17-7.62,0-7.62,17.47,0,25.81-2.54,36.23-4.57,2.61-.51,4.43,1.02,4.43,4.06v81.03c9.12-11.18,22.68-18.03,37.28-18.03,21.64,0,33.1,14.73,33.37,42.67v56.64c0,12.45,2.6,22.1,14.34,22.1,4.17,0,4.17,7.62,0,7.62h-55c-4.17,0-4.17-7.62,0-7.62,11.73,0,14.6-9.65,14.6-22.1v-57.15c0-21.59-6.52-34.04-16.43-34.04-8.86,0-19.81,9.65-28.15,24.13v67.06c0,12.45,2.61,22.1,14.34,22.1,4.17,0,4.17,7.62,0,7.62h-55c-4.17,0-4.17-7.62,0-7.62,11.73,0,14.6-9.65,14.6-22.1v-137.41Z"/>
    </g>
    <g>
      <path class="cls-1" d="M237.58,889.73h-16.71l-27.94-41.22v41.22h-16.71v-66.82h16.71l27.94,41.41v-41.41h16.71v66.82Z"/>
      <path class="cls-1" d="M311.92,877.93h-25.59l-4.1,11.8h-17.49l24.81-66.82h19.34l24.81,66.82h-17.68l-4.1-11.8ZM307.62,865.36l-8.5-24.46-8.4,24.46h16.9Z"/>
      <path class="cls-1" d="M425.14,822.91l-24.32,66.82h-20.91l-24.32-66.82h17.78l17,50.45,17.1-50.45h17.68Z"/>
      <path class="cls-1" d="M468.32,822.91v66.82h-16.71v-66.82h16.71Z"/>
      <path class="cls-1" d="M545.5,844.04c-1.24-2.22-3.01-3.92-5.32-5.09-2.31-1.17-5.03-1.76-8.16-1.76-5.41,0-9.74,1.73-12.99,5.19-3.26,3.46-4.88,8.08-4.88,13.85,0,6.16,1.71,10.96,5.13,14.42,3.42,3.46,8.12,5.19,14.12,5.19,4.1,0,7.57-1.01,10.4-3.04,2.83-2.03,4.9-4.95,6.2-8.76h-21.2v-11.99h36.34v15.13c-1.24,4.06-3.34,7.84-6.3,11.33-2.96,3.49-6.73,6.31-11.28,8.47-4.56,2.16-9.71,3.24-15.43,3.24-6.78,0-12.81-1.44-18.12-4.33-5.31-2.88-9.44-6.9-12.41-12.04-2.96-5.14-4.45-11.01-4.45-17.61s1.48-12.48,4.45-17.66c2.96-5.17,7.08-9.2,12.36-12.09,5.28-2.89,11.3-4.33,18.07-4.33,8.21,0,15.12,1.94,20.76,5.81,5.63,3.87,9.36,9.23,11.18,16.09h-18.46Z"/>
      <path class="cls-1" d="M636.64,877.93h-25.59l-4.1,11.8h-17.49l24.81-66.82h19.34l24.81,66.82h-17.68l-4.1-11.8ZM632.34,865.36l-8.5-24.46-8.4,24.46h16.9Z"/>
      <path class="cls-1" d="M734.82,822.91v13.04h-18.17v53.78h-16.71v-53.78h-18.17v-13.04h53.04Z"/>
      <path class="cls-1" d="M777.46,886.02c-5.37-2.92-9.64-7-12.8-12.23-3.16-5.24-4.74-11.12-4.74-17.66s1.58-12.41,4.74-17.61c3.16-5.2,7.42-9.26,12.8-12.18,5.37-2.92,11.28-4.38,17.73-4.38s12.36,1.46,17.73,4.38c5.37,2.92,9.61,6.98,12.7,12.18,3.09,5.2,4.64,11.08,4.64,17.61s-1.56,12.42-4.69,17.66c-3.13,5.23-7.36,9.31-12.7,12.23-5.34,2.92-11.23,4.38-17.68,4.38s-12.36-1.46-17.73-4.38ZM808.33,870.22c3.29-3.55,4.93-8.25,4.93-14.09s-1.65-10.61-4.93-14.13c-3.29-3.52-7.67-5.28-13.14-5.28s-9.95,1.75-13.24,5.24c-3.29,3.49-4.93,8.22-4.93,14.18s1.64,10.61,4.93,14.14c3.29,3.52,7.7,5.28,13.24,5.28s9.85-1.78,13.14-5.33Z"/>
      <path class="cls-1" d="M894.05,889.73l-14.26-25.22h-4v25.22h-16.71v-66.82h28.04c5.41,0,10.01.92,13.82,2.76,3.81,1.84,6.66,4.37,8.55,7.57,1.89,3.2,2.83,6.77,2.83,10.71,0,4.44-1.29,8.41-3.86,11.9-2.57,3.49-6.37,5.97-11.38,7.43l15.83,26.46h-18.85ZM875.78,852.99h10.36c3.06,0,5.36-.73,6.89-2.19,1.53-1.46,2.3-3.52,2.3-6.19s-.77-4.53-2.3-6c-1.53-1.46-3.83-2.19-6.89-2.19h-10.36v16.56Z"/>
    </g>
  </g>
</svg>