<?xml version="1.0" encoding="UTF-8"?>
<svg id="Layer_1" data-name="Layer 1" xmlns="http://www.w3.org/2000/svg" viewBox="0 0 1080 385">
  <defs>
    <style>
      .cls-1, .cls-2 {
        fill: #382d72;
      }

      .cls-2 {
        fill-rule: evenodd;
      }

      .cls-3 {
        fill: #a080e2;
      }

      .cls-4 {
        fill: #5c4f9d;
      }
    </style>
  </defs>
  <g>
    <g>
      <g>
        <path class="cls-2" d="M319.5,237.16c2.53-5.23,4.64-10.73,6.31-16.4,2.87-9.73,4.32-19.9,4.32-30.22s-1.45-20.51-4.32-30.26c-1.62-5.58-3.72-11.08-6.26-16.37h8.5c1.91,4.3,3.58,8.8,4.95,13.39,1.1,3.62,2.03,7.38,2.76,11.16,1.4,7.15,2.11,14.58,2.11,22.07s-.72,14.92-2.13,22.17c-.75,3.83-1.67,7.54-2.74,11.03-1.37,4.61-3.04,9.11-4.96,13.42h-8.54Z"/>
        <path class="cls-2" d="M109.89,237.16c-1.93-4.37-3.6-8.88-4.95-13.41-1.07-3.5-1.99-7.21-2.74-11.04-1.41-7.25-2.13-14.71-2.13-22.17s.71-14.91,2.11-22.06c.73-3.8,1.66-7.55,2.76-11.16,1.38-4.61,3.04-9.11,4.95-13.4h8.5c-2.5,5.19-4.6,10.66-6.26,16.3-2.88,9.78-4.34,19.98-4.34,30.33s1.46,20.54,4.34,30.31c1.63,5.58,3.73,11.06,6.26,16.32h-8.49Z"/>
        <g>
          <path class="cls-2" d="M332.73,213.48c1.51-7.49,2.27-15.16,2.27-22.89s-.76-15.41-2.27-22.89l64.26,22.89-64.26,22.89Z"/>
          <path class="cls-2" d="M105.2,167.7c-1.5,7.49-2.27,15.16-2.27,22.89s.76,15.41,2.27,22.89l-64.26-22.89,64.26-22.89Z"/>
        </g>
      </g>
      <g>
        <g>
          <path class="cls-2" d="M329.88,104.35c-3.54-4.54-7.39-8.93-11.57-13.11-4.18-4.18-8.57-8.05-13.11-11.57-14.71-11.47-31.2-19.62-48.4-24.38v10.02c20.01,6.03,38.87,16.94,54.69,32.76,17.39,17.39,28.87,38.46,34.42,60.7l10.72,3.82c-4.18-20.74-13.11-40.74-26.75-58.23ZM345.9,222.4c-5.54,22.24-17.03,43.33-34.42,60.72-.19.19-.4.38-.59.57-6.63,6.58-13.81,12.28-21.38,17.13-10.17,6.53-21.07,11.52-32.33,14.94v10.03c17.06-4.78,33.41-12.9,48.01-24.28l.02-.02c4.54-3.54,8.91-7.37,13.09-11.55,4.18-4.18,8.03-8.57,11.57-13.11,13.62-17.49,22.55-37.49,26.75-58.25l-10.72,3.82ZM148.39,300.81c-7.06-4.52-13.76-9.79-20.03-15.82-.64-.62-1.28-1.24-1.92-1.88-17.41-17.39-28.87-38.47-34.42-60.72l-10.74-3.82c4.2,20.76,13.12,40.75,26.77,58.25,3.54,4.54,7.39,8.93,11.57,13.11,4.18,4.18,8.55,8.01,13.09,11.55l.02.02c14.59,11.38,30.95,19.48,48.01,24.28v-10.03c-11.28-3.42-22.16-8.39-32.34-14.94ZM132.73,79.67c-4.54,3.52-8.93,7.39-13.11,11.57-4.18,4.18-8.03,8.57-11.57,13.11-13.64,17.49-22.57,37.49-26.77,58.23l10.74-3.82c5.54-22.24,17.01-43.31,34.42-60.7,15.82-15.83,34.67-26.75,54.71-32.78v-10.02c-17.22,4.78-33.71,12.92-48.42,24.4Z"/>
          <g>
            <path class="cls-2" d="M95.58,313.97l8.3-24.7,6.97-20.77c8.6,11.4,18.8,21.6,30.2,30.2l-20.76,6.97-24.7,8.3h0Z"/>
            <path class="cls-2" d="M342.34,67.21l-8.3,24.71-6.97,20.76c-8.6-11.4-18.8-21.6-30.2-30.2l20.76-6.97,24.7-8.3h0Z"/>
            <path class="cls-2" d="M95.58,67.21l24.7,8.3,20.76,6.97c-11.4,8.6-21.6,18.8-30.2,30.2l-6.97-20.76-8.3-24.7h0Z"/>
            <path class="cls-2" d="M342.34,313.97l-24.7-8.3-20.76-6.97c11.4-8.6,21.6-18.8,30.2-30.2l6.97,20.76,8.3,24.7h0Z"/>
          </g>
        </g>
        <path class="cls-2" d="M196.07,304.36c7.49,1.5,15.16,2.27,22.89,2.27s15.41-.76,22.89-2.27l-22.89,64.26-22.89-64.26Z"/>
      </g>
    </g>
    <g>
      <path class="cls-4" d="M313.94,185.08l-8.13,12.24v.02l-.26.36-3.92-2.62-14.59-9.72v105.37c-5.92,3.8-12.17,7.08-18.72,9.84-3.78,1.61-7.63,3.01-11.54,4.23v-83.15c0-20.86-16.96-37.83-37.84-37.83s-37.8,16.97-37.8,37.83v83.15c-3.89-1.23-7.74-2.62-11.54-4.23-6.54-2.78-12.81-6.06-18.74-9.84v-105.37l-14.59,9.76-3.68,2.45-.21.14-8.41-12.62,9.07-6.04.47-.31,85.43-56.95,85.77,57.16.12.09,9.1,6.06Z"/>
      <path class="cls-4" d="M241.66,217.73v71.81c-7.44,1.11-15.02,1.67-22.69,1.67s-15.26-.56-22.69-1.67v-71.81c0-10.35,10.18-18.76,22.69-18.76s22.69,8.42,22.69,18.76Z"/>
    </g>
    <path class="cls-3" d="M255.78,79.28l-4.16-2.07-8.63-4.3-8.51-4.27-7.94-3.97v-18.03h15.13v-15.13h-15.13v-15.13h-15.13v15.13h-15.13v15.13h15.13v18.03l-5.32,2.66-2.62,1.31-6.84,3.42-4.51,2.26-5.79,2.88-4.13,2.05-1.05.54v49.03l37.82-25.23,37.84,25.23v-49.03l-1.02-.52Z"/>
  </g>
  <g>
    <g>
      <path class="cls-1" d="M555.29,119.41c0,3.88-.61,4.9-3.47,4.9-2.65,0-3.67-1.02-4.49-4.28-5.1-20.81-20.4-34.69-37.13-34.69-18.57,0-31.01,19.18-31.01,47.74-.2,48.36,17.75,80.59,45.09,80.59,11.42,0,21.42-4.08,28.15-11.83,1.02-1.22,2.65-1.43,3.88-.2,1.22,1.22,1.63,2.86.61,4.28-8.57,13.87-24.69,23.06-40.4,23.06-36.73,0-61.21-30.4-61.21-75.9s23.67-73.86,59.38-73.86c14.69,0,29.38,6.32,38.15,13.06,1.84,1.43,2.45,2.24,2.45,4.9v22.24Z"/>
      <path class="cls-1" d="M572.84,91.25c0-9.39-4.49-13.47-11.42-13.47-3.27,0-3.27-6.12,0-6.12,13.67,0,20.2-2.04,28.36-3.67,2.04-.41,3.47.82,3.47,3.26v65.09c7.14-8.98,17.75-14.49,29.17-14.49,16.94,0,25.91,11.83,26.12,34.28v45.5c0,10,2.04,17.75,11.22,17.75,3.27,0,3.27,6.12,0,6.12h-43.05c-3.26,0-3.26-6.12,0-6.12,9.18,0,11.43-7.75,11.43-17.75v-45.91c0-17.34-5.1-27.34-12.85-27.34-6.94,0-15.51,7.75-22.03,19.38v53.86c0,10,2.04,17.75,11.22,17.75,3.26,0,3.26,6.12,0,6.12h-43.05c-3.27,0-3.27-6.12,0-6.12,9.18,0,11.42-7.75,11.42-17.75v-110.38Z"/>
      <path class="cls-1" d="M677.72,145.93c0-8.77-5.92-14.49-11.43-14.49-3.27,0-3.27-6.12,0-6.12,13.47,0,20.2-2.04,28.36-3.67,2.04-.41,3.47.82,3.47,3.26v70.19c-.2,16.12,5.71,26.73,14.69,26.73,7.55,0,16.73-7.55,22.85-20v-54.68c0-11.83-6.33-15.71-11.43-15.71-3.27,0-3.27-6.12,0-6.12,13.47,0,15.91-1.22,28.36-3.67,2.86-.61,3.47,1.84,3.47,3.06v77.94c0,8.16,3.67,12.45,9.18,11.22,3.47-.61,3.88,4.9,1.43,6.53-5.92,4.28-12.65,7.14-16.94,7.14-6.32,0-11.22-5.92-13.26-15.51-8.36,10.41-20,16.94-32.03,16.94-15.51,0-26.73-12.24-26.73-30.61v-52.44Z"/>
      <path class="cls-1" d="M790.34,147.15c0-9.39-4.49-15.71-11.43-15.71-3.27,0-3.27-6.12,0-6.12,13.67,0,20.2-1.43,28.36-3.26,2.04-.41,3.47.82,3.47,3.26v7.34c5.71-6.53,13.26-10.81,22.44-10.81,10,0,16.73,6.94,16.73,14.69-.2,5.92-4.08,10-8.98,10-10.4,0-9.79-19.18-17.55-19.18-4.28,0-8.98,5.51-12.65,14.08v60.19c0,10,2.04,17.75,11.22,17.75,3.26,0,3.26,6.12,0,6.12h-43.05c-3.27,0-3.27-6.12,0-6.12,9.18,0,11.43-7.75,11.43-17.75v-54.48Z"/>
      <path class="cls-1" d="M925.62,150.83c0,1.43-1.22,2.45-2.86,2.45-2.45,0-3.27-1.02-4.69-5.31-4.08-12.45-13.88-20.61-24.28-20.61-12.04,0-19.99,15.3-19.99,38.16,0,29.99,13.06,51.82,29.79,51.82,7.14,0,14.69-3.67,20-9.18.61-.61,1.22-.82,1.63-.82,2.04,0,3.67,2.45,2.24,4.69-6.53,10-19.59,16.94-32.85,16.94-24.69,0-41.21-21.63-41.21-53.87s16.73-53.25,41.83-53.25c9.59,0,20.61,4.28,27.95,10.81,2.04,1.84,2.24,2.45,2.24,7.14l.2,11.02Z"/>
      <path class="cls-1" d="M947.04,91.25c0-9.39-4.49-13.47-11.43-13.47-3.26,0-3.26-6.12,0-6.12,13.67,0,20.2-2.04,28.36-3.67,2.04-.41,3.47.82,3.47,3.26v65.09c7.14-8.98,17.75-14.49,29.18-14.49,16.93,0,25.91,11.83,26.12,34.28v45.5c0,10,2.04,17.75,11.22,17.75,3.26,0,3.26,6.12,0,6.12h-43.05c-3.27,0-3.27-6.12,0-6.12,9.18,0,11.43-7.75,11.43-17.75v-45.91c0-17.34-5.1-27.34-12.86-27.34-6.94,0-15.5,7.75-22.03,19.38v53.86c0,10,2.04,17.75,11.22,17.75,3.26,0,3.26,6.12,0,6.12h-43.05c-3.26,0-3.26-6.12,0-6.12,9.18,0,11.43-7.75,11.43-17.75v-110.38Z"/>
    </g>
    <g>
      <path class="cls-1" d="M510.48,316.55h-13.08l-21.87-33.11v33.11h-13.08v-53.68h13.08l21.87,33.26v-33.26h13.08v53.68Z"/>
      <path class="cls-1" d="M568.67,307.07h-20.03l-3.21,9.48h-13.69l19.42-53.68h15.14l19.42,53.68h-13.84l-3.21-9.48ZM565.3,296.98l-6.65-19.65-6.58,19.65h13.23Z"/>
      <path class="cls-1" d="M657.29,262.88l-19.04,53.68h-16.36l-19.04-53.68h13.92l13.3,40.52,13.38-40.52h13.84Z"/>
      <path class="cls-1" d="M691.08,262.88v53.68h-13.08v-53.68h13.08Z"/>
      <path class="cls-1" d="M751.49,279.85c-.97-1.78-2.36-3.15-4.17-4.09-1.81-.94-3.94-1.41-6.38-1.41-4.23,0-7.62,1.39-10.17,4.17-2.55,2.78-3.82,6.49-3.82,11.12,0,4.95,1.34,8.81,4.01,11.58,2.68,2.78,6.36,4.17,11.05,4.17,3.21,0,5.93-.81,8.14-2.45,2.22-1.63,3.84-3.98,4.86-7.03h-16.59v-9.63h28.44v12.16c-.97,3.26-2.61,6.3-4.93,9.1-2.32,2.8-5.26,5.07-8.83,6.8-3.57,1.73-7.6,2.6-12.08,2.6-5.3,0-10.03-1.16-14.18-3.48-4.15-2.32-7.39-5.54-9.71-9.67-2.32-4.13-3.48-8.84-3.48-14.15s1.16-10.03,3.48-14.18c2.32-4.15,5.54-7.39,9.67-9.71,4.13-2.32,8.84-3.48,14.15-3.48,6.42,0,11.84,1.55,16.25,4.66,4.41,3.11,7.33,7.42,8.75,12.92h-14.45Z"/>
      <path class="cls-1" d="M822.83,307.07h-20.03l-3.21,9.48h-13.69l19.42-53.68h15.14l19.42,53.68h-13.84l-3.21-9.48ZM819.46,296.98l-6.65-19.65-6.58,19.65h13.23Z"/>
      <path class="cls-1" d="M899.67,262.88v10.47h-14.22v43.2h-13.08v-43.2h-14.22v-10.47h41.52Z"/>
      <path class="cls-1" d="M933.05,313.57c-4.21-2.34-7.54-5.62-10.02-9.82-2.47-4.21-3.71-8.93-3.71-14.19s1.24-9.97,3.71-14.14c2.47-4.18,5.81-7.44,10.02-9.79,4.21-2.34,8.83-3.52,13.88-3.52s9.67,1.17,13.88,3.52c4.21,2.35,7.52,5.61,9.94,9.79,2.42,4.18,3.63,8.9,3.63,14.14s-1.22,9.98-3.67,14.19c-2.45,4.2-5.76,7.48-9.94,9.82-4.18,2.35-8.79,3.52-13.84,3.52s-9.67-1.17-13.88-3.52ZM957.21,300.88c2.57-2.85,3.86-6.63,3.86-11.32s-1.29-8.53-3.86-11.35c-2.57-2.83-6-4.24-10.28-4.24s-7.79,1.4-10.36,4.21c-2.57,2.8-3.86,6.6-3.86,11.39s1.29,8.53,3.86,11.36c2.57,2.83,6.03,4.24,10.36,4.24s7.71-1.43,10.28-4.28Z"/>
      <path class="cls-1" d="M1024.3,316.55l-11.16-20.26h-3.13v20.26h-13.08v-53.68h21.94c4.23,0,7.84.74,10.82,2.22,2.98,1.48,5.21,3.51,6.69,6.08,1.48,2.57,2.22,5.44,2.22,8.6,0,3.57-1.01,6.75-3.02,9.56-2.01,2.8-4.98,4.79-8.91,5.97l12.39,21.26h-14.76ZM1010.01,287.04h8.1c2.39,0,4.19-.59,5.39-1.76,1.2-1.17,1.8-2.83,1.8-4.97s-.6-3.64-1.8-4.82c-1.2-1.17-3-1.76-5.39-1.76h-8.1v13.31Z"/>
    </g>
  </g>
</svg>